<?xml version="1.0" encoding="UTF-8" standalone="no"?>
<!DOCTYPE svg PUBLIC "-//W3C//DTD SVG 1.1//EN" "http://www.w3.org/Graphics/SVG/1.1/DTD/svg11.dtd">
<svg width="100%" height="100%" viewBox="0 0 512 512" version="1.1" xmlns="http://www.w3.org/2000/svg" xmlns:xlink="http://www.w3.org/1999/xlink" xml:space="preserve" xmlns:serif="http://www.serif.com/" style="fill-rule:evenodd;clip-rule:evenodd;stroke-linejoin:round;stroke-miterlimit:2;">
    <g transform="matrix(1,0,0,1,67.9743,-9.04871)">
        <g transform="matrix(1.23695,0,0,1,-69.6409,54.818)">
            <path d="M344.805,251.066C344.805,219.601 324.153,194.056 298.715,194.056L117.901,194.056C92.464,194.056 71.812,219.601 71.812,251.066C71.812,282.531 92.464,308.077 117.901,308.077L298.715,308.077C324.153,308.077 344.805,282.531 344.805,251.066Z" style="fill:rgb(199,205,213);"/>
        </g>
        <g transform="matrix(0.0133305,0.77738,-1.31849,0.0226093,457.902,100.907)">
            <path d="M314.107,237.362C314.107,209.83 276.196,187.478 229.5,187.478L162.997,187.478C116.301,187.478 78.39,209.83 78.39,237.362C78.39,264.894 116.301,287.246 162.997,287.246L229.5,287.246C276.196,287.246 314.107,264.894 314.107,237.362Z" style="fill:rgb(199,205,213);"/>
        </g>
        <g transform="matrix(0.0125798,0.733605,-1.61181,0.0276392,606.149,121.587)">
            <path d="M314.107,237.362C314.107,209.83 264.996,187.478 204.506,187.478L187.991,187.478C127.5,187.478 78.39,209.83 78.39,237.362C78.39,264.894 127.5,287.246 187.991,287.246L204.506,287.246C264.996,287.246 314.107,264.894 314.107,237.362Z" style="fill:rgb(199,205,213);"/>
        </g>
    </g>
</svg>
