<?xml version="1.0" encoding="UTF-8" standalone="no"?>
<!DOCTYPE svg PUBLIC "-//W3C//DTD SVG 1.1//EN" "http://www.w3.org/Graphics/SVG/1.1/DTD/svg11.dtd">
<svg width="100%" height="100%" viewBox="0 0 512 512" version="1.1" xmlns="http://www.w3.org/2000/svg" xmlns:xlink="http://www.w3.org/1999/xlink" xml:space="preserve" xmlns:serif="http://www.serif.com/" style="fill-rule:evenodd;clip-rule:evenodd;stroke-linejoin:round;stroke-miterlimit:2;">
    <g transform="matrix(1,0,0,1,17.5118,17.7677)">
        <g transform="matrix(1.1032,0,0,1.1032,-16.4406,-12.2073)">
            <circle cx="246.955" cy="243.118" r="126.904" style="fill-opacity:0.32;"/>
        </g>
        <g>
            <g transform="matrix(1,0,0,1,4.93362,0.289079)">
                <rect x="231.88" y="40.565" width="38.373" height="54.818" style="fill-opacity:0.32;"/>
            </g>
            <g transform="matrix(6.12323e-17,-1,1,6.12323e-17,375.63,507.066)">
                <rect x="231.88" y="40.565" width="38.373" height="54.818" style="fill-opacity:0.32;"/>
            </g>
            <g transform="matrix(6.12323e-17,-1,1,6.12323e-17,0.289079,507.066)">
                <rect x="231.88" y="40.565" width="38.373" height="54.818" style="fill-opacity:0.32;"/>
            </g>
            <g transform="matrix(1,0,0,1,5.93362,375.859)">
                <rect x="231.88" y="40.565" width="38.373" height="54.818" style="fill-opacity:0.32;"/>
            </g>
            <g transform="matrix(-0.707107,-0.707107,0.707107,-0.707107,245.466,621.596)">
                <rect x="231.88" y="40.565" width="38.373" height="54.818" style="fill-opacity:0.32;"/>
            </g>
            <g transform="matrix(-0.707107,-0.707107,0.707107,-0.707107,525.466,341.596)">
                <rect x="231.88" y="40.565" width="38.373" height="54.818" style="fill-opacity:0.32;"/>
            </g>
            <g transform="matrix(0.707107,-0.707107,0.707107,0.707107,170.404,525.466)">
                <rect x="231.88" y="40.565" width="38.373" height="54.818" style="fill-opacity:0.32;"/>
            </g>
            <g transform="matrix(0.707107,-0.707107,0.707107,0.707107,-109.596,245.466)">
                <rect x="231.88" y="40.565" width="38.373" height="54.818" style="fill-opacity:0.32;"/>
            </g>
        </g>
    </g>
    <g>
        <g transform="matrix(1.1032,0,0,1.1032,-16.4406,-12.2073)">
            <circle cx="246.955" cy="243.118" r="126.904" style="fill:rgb(249,172,61);"/>
        </g>
        <g>
            <g transform="matrix(1,0,0,1,4.93362,0.289079)">
                <rect x="231.88" y="40.565" width="38.373" height="54.818" style="fill:rgb(249,172,61);"/>
            </g>
            <g transform="matrix(6.12323e-17,-1,1,6.12323e-17,375.63,507.066)">
                <rect x="231.88" y="40.565" width="38.373" height="54.818" style="fill:rgb(249,172,61);"/>
            </g>
            <g transform="matrix(6.12323e-17,-1,1,6.12323e-17,0.289079,507.066)">
                <rect x="231.88" y="40.565" width="38.373" height="54.818" style="fill:rgb(249,172,61);"/>
            </g>
            <g transform="matrix(1,0,0,1,5.93362,375.859)">
                <rect x="231.88" y="40.565" width="38.373" height="54.818" style="fill:rgb(249,172,61);"/>
            </g>
            <g transform="matrix(-0.707107,-0.707107,0.707107,-0.707107,245.466,621.596)">
                <rect x="231.88" y="40.565" width="38.373" height="54.818" style="fill:rgb(249,172,61);"/>
            </g>
            <g transform="matrix(-0.707107,-0.707107,0.707107,-0.707107,525.466,341.596)">
                <rect x="231.88" y="40.565" width="38.373" height="54.818" style="fill:rgb(249,172,61);"/>
            </g>
            <g transform="matrix(0.707107,-0.707107,0.707107,0.707107,170.404,525.466)">
                <rect x="231.88" y="40.565" width="38.373" height="54.818" style="fill:rgb(249,172,61);"/>
            </g>
            <g transform="matrix(0.707107,-0.707107,0.707107,0.707107,-109.596,245.466)">
                <rect x="231.88" y="40.565" width="38.373" height="54.818" style="fill:rgb(249,172,61);"/>
            </g>
        </g>
    </g>
</svg>
