<?xml version="1.0" encoding="UTF-8" standalone="no"?>
<!DOCTYPE svg PUBLIC "-//W3C//DTD SVG 1.1//EN" "http://www.w3.org/Graphics/SVG/1.1/DTD/svg11.dtd">
<svg width="100%" height="100%" viewBox="0 0 512 512" version="1.1" xmlns="http://www.w3.org/2000/svg" xmlns:xlink="http://www.w3.org/1999/xlink" xml:space="preserve" xmlns:serif="http://www.serif.com/" style="fill-rule:evenodd;clip-rule:evenodd;stroke-linejoin:round;stroke-miterlimit:2;">
    <g transform="matrix(1,0,0,1,67.9743,-9.04871)">
        <g transform="matrix(1.23695,0,0,1,-69.6409,54.818)">
            <path d="M344.805,251.066C344.805,219.601 324.153,194.056 298.715,194.056L117.901,194.056C92.464,194.056 71.812,219.601 71.812,251.066C71.812,282.531 92.464,308.077 117.901,308.077L298.715,308.077C324.153,308.077 344.805,282.531 344.805,251.066Z" style="fill:rgb(199,205,213);"/>
        </g>
        <g transform="matrix(0.0133305,0.77738,-1.31849,0.0226093,457.902,100.907)">
            <path d="M314.107,237.362C314.107,209.83 276.196,187.478 229.5,187.478L162.997,187.478C116.301,187.478 78.39,209.83 78.39,237.362C78.39,264.894 116.301,287.246 162.997,287.246L229.5,287.246C276.196,287.246 314.107,264.894 314.107,237.362Z" style="fill:rgb(199,205,213);"/>
        </g>
        <g transform="matrix(0.0125798,0.733605,-1.61181,0.0276392,606.149,121.587)">
            <path d="M314.107,237.362C314.107,209.83 264.996,187.478 204.506,187.478L187.991,187.478C127.5,187.478 78.39,209.83 78.39,237.362C78.39,264.894 127.5,287.246 187.991,287.246L204.506,287.246C264.996,287.246 314.107,264.894 314.107,237.362Z" style="fill:rgb(199,205,213);"/>
        </g>
    </g>
    <path d="M317.396,319.041C317.396,311.174 311.01,304.788 303.143,304.788L134.304,304.788C126.438,304.788 120.051,311.174 120.051,319.041C120.051,326.907 126.438,333.293 134.304,333.293L303.143,333.293C311.01,333.293 317.396,326.907 317.396,319.041Z" style="fill:rgb(144,177,198);"/>
    <g transform="matrix(1,0,0,1,63.0339,36.6272)">
        <path d="M317.396,319.041C317.396,311.174 311.01,304.788 303.143,304.788L134.304,304.788C126.438,304.788 120.051,311.174 120.051,319.041C120.051,326.907 126.438,333.293 134.304,333.293L303.143,333.293C311.01,333.293 317.396,326.907 317.396,319.041Z" style="fill:rgb(144,177,198);"/>
    </g>
    <g transform="matrix(1,0,0,1,-35.6385,72.9034)">
        <path d="M317.396,319.041C317.396,311.174 311.01,304.788 303.143,304.788L134.304,304.788C126.438,304.788 120.051,311.174 120.051,319.041C120.051,326.907 126.438,333.293 134.304,333.293L303.143,333.293C311.01,333.293 317.396,326.907 317.396,319.041Z" style="fill:rgb(144,177,198);"/>
    </g>
    <g transform="matrix(1,0,0,1.46809,18.0165,-187.563)">
        <path d="M362.414,369.036C362.414,364.225 356.679,360.318 349.615,360.318C342.551,360.318 336.817,364.225 336.817,369.036L336.817,393.813C336.817,398.624 342.551,402.531 349.615,402.531C356.679,402.531 362.414,398.624 362.414,393.813L362.414,369.036Z" style="fill:rgb(144,177,198);"/>
    </g>
    <g transform="matrix(6.12323e-17,-1,1.46809,8.98943e-17,-192.332,740.203)">
        <path d="M362.414,369.036C362.414,364.225 356.679,360.318 349.615,360.318C342.551,360.318 336.817,364.225 336.817,369.036L336.817,393.813C336.817,398.624 342.551,402.531 349.615,402.531C356.679,402.531 362.414,398.624 362.414,393.813L362.414,369.036Z" style="fill:rgb(144,177,198);"/>
    </g>
    <g transform="matrix(6.12323e-17,-1,1.46809,8.98943e-17,-205.13,668.914)">
        <path d="M362.414,369.036C362.414,364.225 356.679,360.318 349.615,360.318C342.551,360.318 336.817,364.225 336.817,369.036L336.817,393.813C336.817,398.624 342.551,402.531 349.615,402.531C356.679,402.531 362.414,398.624 362.414,393.813L362.414,369.036Z" style="fill:rgb(144,177,198);"/>
    </g>
    <g transform="matrix(6.81898e-17,-1.11362,1.46809,8.98943e-17,-174.145,745.008)">
        <path d="M362.414,370.027C362.414,364.668 356.679,360.318 349.615,360.318C342.551,360.318 336.817,364.668 336.817,370.027L336.817,392.822C336.817,398.181 342.551,402.531 349.615,402.531C356.679,402.531 362.414,398.181 362.414,392.822L362.414,370.027Z" style="fill:rgb(144,177,198);"/>
    </g>
</svg>
